HIERARCHY
ROOT Hips
{
	OFFSET 39.479198 -0.871640 99.921600
	CHANNELS 6 Xposition Yposition Zposition Xrotation Yrotation Zrotation
	JOINT spine
	{
		OFFSET 0.000000 -0.507026 8.817047
		CHANNELS 3 Xrotation Yrotation Zrotation
		JOINT spine1
		{
			OFFSET 0.000000 -0.000002 10.776596
			CHANNELS 3 Xrotation Yrotation Zrotation
			JOINT spine2
			{
				OFFSET 0.000000 -0.000002 10.325897
				CHANNELS 3 Xrotation Yrotation Zrotation
				JOINT Neck
				{
					OFFSET 0.000000 -1.263955 26.511002
					CHANNELS 3 Xrotation Yrotation Zrotation
					JOINT Head
					{
						OFFSET 0.000000 -0.000001 8.009659
						CHANNELS 3 Xrotation Yrotation Zrotation
						End Site
						{
							OFFSET 0.000000 6.393857 19.387894
						}
					}
				}
				JOINT RightShoulder
				{
					OFFSET -4.347950 0.605420 11.151199
					CHANNELS 3 Xrotation Yrotation Zrotation
					JOINT RightArm
					{
						OFFSET 0.000000 -0.000002 14.625793
						CHANNELS 3 Xrotation Yrotation Zrotation
						JOINT RightArmRoll
						{
							OFFSET 0.000000 -0.000001 7.383392
							CHANNELS 3 Xrotation Yrotation Zrotation
							JOINT RightForeArm
							{
								OFFSET 0.000000 -0.000003 21.505203
								CHANNELS 3 Xrotation Yrotation Zrotation
								JOINT RightForeArmRoll
								{
									OFFSET 0.000000 -0.000001 8.285324
									CHANNELS 3 Xrotation Yrotation Zrotation
									JOINT RightHand
									{
										OFFSET 0.000000 -0.000003 16.626801
										CHANNELS 3 Xrotation Yrotation Zrotation
										End Site
										{
											OFFSET 0.000000 -0.000000 0.100006
										}
									}
								}
							}
						}
					}
				}
				JOINT LeftShoulder
				{
					OFFSET 4.347950 0.605420 11.151199
					CHANNELS 3 Xrotation Yrotation Zrotation
					JOINT LeftArm
					{
						OFFSET 0.000000 -0.000002 14.625793
						CHANNELS 3 Xrotation Yrotation Zrotation
						JOINT LeftArmRoll
						{
							OFFSET 0.000000 -0.000001 7.383392
							CHANNELS 3 Xrotation Yrotation Zrotation
							JOINT LeftForeArm
							{
								OFFSET 0.000000 -0.000003 21.505203
								CHANNELS 3 Xrotation Yrotation Zrotation
								JOINT LeftForeArmRoll
								{
									OFFSET 0.000000 -0.000001 8.285324
									CHANNELS 3 Xrotation Yrotation Zrotation
									JOINT LeftHand
									{
										OFFSET 0.000000 -0.000003 16.626801
										CHANNELS 3 Xrotation Yrotation Zrotation
										End Site
										{
											OFFSET 0.000000 -0.000000 0.100006
										}
									}
								}
							}
						}
					}
				}
			}
		}
	}
	JOINT RightUpLeg
	{
		OFFSET -7.815100 1.202170 -1.433090
		CHANNELS 3 Xrotation Yrotation Zrotation
		JOINT RightUpLegRoll
		{
			OFFSET 0.000000 -0.000003 19.495895
			CHANNELS 3 Xrotation Yrotation Zrotation
			JOINT RightLeg
			{
				OFFSET 0.000000 0.000004 -24.142700
				CHANNELS 3 Xrotation Yrotation Zrotation
				JOINT RightLegRoll
				{
					OFFSET 0.000000 -0.000004 24.221703
					CHANNELS 3 Xrotation Yrotation Zrotation
					JOINT RightFoot
					{
						OFFSET 0.000000 -0.000003 20.160500
						CHANNELS 3 Xrotation Yrotation Zrotation
						JOINT RightToeBase
						{
							OFFSET 0.000000 -0.000003 16.853195
							CHANNELS 3 Xrotation Yrotation Zrotation
							End Site
							{
								OFFSET 0.007143 0.940779 8.161865
							}
						}
					}
				}
			}
		}
	}
	JOINT LeftUpLeg
	{
		OFFSET 7.815102 1.202170 -1.433090
		CHANNELS 3 Xrotation Yrotation Zrotation
		JOINT LeftUpLegRoll
		{
			OFFSET 0.000000 -0.000003 19.496002
			CHANNELS 3 Xrotation Yrotation Zrotation
			JOINT LeftLeg
			{
				OFFSET 0.000000 -0.000004 24.142593
				CHANNELS 3 Xrotation Yrotation Zrotation
				JOINT LeftLegRoll
				{
					OFFSET 0.000000 -0.000004 24.445602
					CHANNELS 3 Xrotation Yrotation Zrotation
					JOINT LeftFoot
					{
						OFFSET 0.000000 -0.000003 19.936600
						CHANNELS 3 Xrotation Yrotation Zrotation
						JOINT LeftToeBase
						{
							OFFSET 0.000000 -0.000003 16.853195
							CHANNELS 3 Xrotation Yrotation Zrotation
							End Site
							{
								OFFSET -0.032013 0.940779 8.161865
							}
						}
					}
				}
			}
		}
	}
}
MOTION
Frames: 7
Frame Time: 0.041667
49.740894 -10.778114 100.330002 -0.132754 -0.085989 1.459011 -2.122134 -0.129708 0.007316 -0.244363 -0.249450 -0.013065 1.400703 -0.249584 -0.010075 22.227853 3.736020 1.301672 -0.996704 0.466864 1.499912 -8.686905 -67.613757 -10.845329 -50.572093 -115.352647 -39.315307 0.000001 0.000001 0.000009 2.158142 -16.242880 0.259555 0.000002 0.000004 -3.004990 -5.000209 -7.998891 0.000162 -6.764247 65.485053 8.524344 -42.501788 111.994591 36.554810 0.000001 0.000004 0.000000 6.267237 13.237936 -0.351954 0.000001 -0.000002 2.999990 -5.000209 7.998723 -0.000143 -1.810862 -178.398804 -0.646358 -179.999991 0.000005 -1.000003 173.868244 -1.703212 -0.472963 -0.000003 0.000001 0.035650 68.598991 6.739098 2.549244 25.456953 -7.348916 -0.000002 -1.367216 177.669667 2.456283 -0.000005 -0.000004 -1.047410 -7.257764 2.633222 0.449457 -0.000001 0.000000 -0.111041 69.966586 -6.865295 -2.126211 25.572723 7.349134 -0.181128 
49.749294 -10.774817 100.330009 -0.128698 -0.085474 1.460948 -2.119694 -0.130493 0.007657 -0.239270 -0.252155 -0.010429 1.405803 -0.252258 -0.007407 22.255490 3.734970 1.290840 -1.032153 0.473759 1.489256 -8.696493 -67.598013 -10.855107 -50.537400 -115.350352 -39.364702 -0.000002 0.000001 0.000010 2.256544 -16.294630 0.275593 0.000002 0.000004 -3.004990 -5.000211 -7.998891 0.000161 -6.723523 65.505858 8.479678 -42.573057 111.966485 36.624796 0.000001 0.000003 0.000000 6.299979 13.242005 -0.355645 -0.000001 -0.000002 2.999990 -5.000210 7.998723 -0.000143 -1.817875 -178.398804 -0.647816 -179.999991 0.000005 -1.000003 173.869651 -1.702212 -0.472813 -0.000003 0.000001 0.035650 68.594941 6.738196 2.550619 25.456959 -7.348916 -0.000001 -1.377021 177.671689 2.458573 -0.000005 -0.000004 -1.047410 -7.261292 2.631961 0.449766 -0.000001 0.000000 -0.111301 69.964237 -6.865228 -2.126243 25.572718 7.349132 -0.181228 
49.756596 -10.769513 100.337006 -0.124856 -0.084926 1.462765 -2.117247 -0.131277 0.007980 -0.234152 -0.254908 -0.007777 1.410924 -0.254977 -0.004722 22.284127 3.733542 1.279898 -1.068684 0.481497 1.478421 -8.706011 -67.582680 -10.864826 -50.503184 -115.348276 -39.413658 0.000000 0.000001 0.000009 2.353910 -16.346036 0.291708 0.000002 0.000003 -3.004991 -5.000212 -7.998892 0.000162 -6.681873 65.526888 8.433995 -42.644269 111.939595 36.692866 -0.000002 0.000003 0.000001 6.329925 13.244749 -0.358910 -0.000002 -0.000003 2.999990 -5.000208 7.998723 -0.000143 -1.824540 -178.398817 -0.649202 -179.999991 0.000005 -1.000003 173.871440 -1.701226 -0.472654 -0.000003 0.000001 0.035650 68.590658 6.737280 2.552005 25.456962 -7.348917 -0.000002 -1.386562 177.672673 2.460897 -0.000005 -0.000004 -1.047410 -7.264817 2.630651 0.450077 -0.000001 0.000000 -0.111579 69.961887 -6.865193 -2.126182 25.572720 7.349134 -0.181348 
49.751198 -10.756717 100.334000 -0.121159 -0.084352 1.464511 -2.114795 -0.132063 0.008290 -0.229016 -0.257694 -0.005114 1.416064 -0.257732 -0.002025 22.313253 3.731859 1.268892 -1.105976 0.489831 1.467486 -8.715472 -67.567653 -10.874506 -50.469258 -115.346377 -39.462289 0.000002 0.000002 0.000011 2.450556 -16.397198 0.307928 0.000001 0.000004 -3.004992 -5.000212 -7.998892 0.000161 -6.639607 65.548233 8.387626 -42.717069 111.913203 36.761294 -0.000000 0.000003 0.000001 6.357918 13.246640 -0.361904 0.000001 -0.000002 2.999990 -5.000207 7.998724 -0.000143 -1.830941 -178.397820 -0.650569 -179.999991 0.000005 -1.000003 173.873489 -1.700241 -0.472486 -0.000003 0.000001 0.035650 68.586280 6.736353 2.553398 25.456957 -7.348916 -0.000001 -1.395896 177.673697 2.463212 -0.000005 -0.000004 -1.047410 -7.268353 2.629301 0.450392 -0.000001 0.000000 -0.111870 69.959626 -6.865094 -2.126304 25.572722 7.349133 -0.181468 
49.748196 -10.750517 100.332008 -0.117548 -0.083765 1.466198 -2.112337 -0.132850 0.008593 -0.223870 -0.260500 -0.002444 1.421205 -0.260505 0.000680 22.342677 3.730019 1.257859 -1.143708 0.498513 1.456483 -8.724913 -67.552825 -10.884162 -50.437266 -115.343973 -39.512614 -0.000000 0.000001 0.000008 2.546830 -16.448217 0.324285 0.000000 0.000003 -3.004990 -5.000211 -7.998893 0.000161 -6.596938 65.569584 8.340797 -42.790660 111.887036 36.829801 -0.000000 0.000003 0.000001 6.384795 13.247962 -0.364719 -0.000002 -0.000003 2.999991 -5.000206 7.998723 -0.000143 -1.837206 -178.397820 -0.651875 -179.999991 0.000005 -1.000003 173.875689 -1.698265 -0.472208 -0.000003 0.000001 0.035650 68.581807 6.735454 2.554700 25.456959 -7.348916 -0.000002 -1.405125 177.674708 2.465522 -0.000005 -0.000004 -1.047410 -7.271899 2.627932 0.450709 -0.000001 0.000000 -0.112167 69.957386 -6.865028 -2.126230 25.572725 7.349135 -0.181597 
49.748497 -10.755214 100.333000 -0.113958 -0.083174 1.467885 -2.109876 -0.133636 0.008894 -0.218722 -0.263310 0.000228 1.426355 -0.263281 0.003386 22.372201 3.728130 1.246811 -1.181546 0.507292 1.445482 -8.734317 -67.537997 -10.893791 -50.405293 -115.341596 -39.562856 0.000002 0.000002 0.000010 2.643035 -16.499191 0.340808 0.000001 0.000004 -3.004990 -5.000209 -7.998891 0.000162 -6.554081 65.590935 8.293771 -42.864420 111.860911 36.898338 -0.000001 0.000003 0.000001 6.411393 13.249185 -0.367491 -0.000002 -0.000002 2.999990 -5.000206 7.998724 -0.000143 -1.843427 -178.397834 -0.653174 -179.999991 0.000005 -1.000003 173.877956 -1.697266 -0.472034 -0.000003 0.000001 0.035650 68.577319 6.734517 2.556095 25.456955 -7.348916 -0.000002 -1.414330 177.675705 2.467840 -0.000005 -0.000004 -1.047410 -7.275434 2.626562 0.451026 -0.000001 0.000000 -0.112466 69.955030 -6.864958 -2.126264 25.572725 7.349135 -0.181718 
49.751896 -10.747012 100.331001 -0.110327 -0.082590 1.469591 -2.107413 -0.134423 0.009198 -0.213578 -0.266110 0.002897 1.431505 -0.266048 0.006089 22.401619 3.726298 1.235788 -1.219164 0.515920 1.434529 -8.743703 -67.523066 -10.903393 -50.373123 -115.339151 -39.613089 0.000002 0.000002 0.000010 2.739516 -16.550202 0.357535 0.000002 0.000004 -3.004991 -5.000210 -7.998891 0.000161 -6.511342 65.612252 8.246883 -42.936471 111.835496 36.965356 -0.000002 0.000004 0.000000 6.438554 13.250689 -0.370355 -0.000000 -0.000002 2.999990 -5.000207 7.998723 -0.000143 -1.849718 -178.396837 -0.654520 -179.999991 0.000005 -1.000003 173.880101 -1.696282 -0.471864 -0.000003 0.000001 0.035650 68.572845 6.733618 2.557396 25.456959 -7.348917 -0.000002 -1.423584 177.676730 2.470161 -0.000005 -0.000004 -1.047410 -7.278970 2.625192 0.451341 -0.000001 0.000000 -0.112762 69.952776 -6.864894 -2.126193 25.572621 7.349140 -0.181834 
